Coordinates
version=1
nRows=7
nColumns=40
inDegrees=yes

Units are S.I. units (second, meters, Newtons, ...)
If the header above contains a line with 'inDegrees', this indicates whether rotational values are in degrees (yes) or radians (no).

endheader
time	pelvis_tilt	pelvis_list	pelvis_rotation	pelvis_tx	pelvis_ty	pelvis_tz	hip_flexion_r	hip_adduction_r	hip_rotation_r	knee_angle_r	knee_angle_r_beta	ankle_angle_r	subtalar_angle_r	mtp_angle_r	hip_flexion_l	hip_adduction_l	hip_rotation_l	knee_angle_l	knee_angle_l_beta	ankle_angle_l	subtalar_angle_l	mtp_angle_l	lumbar_extension	lumbar_bending	lumbar_rotation	arm_flex_r	arm_add_r	arm_rot_r	elbow_flex_r	pro_sup_r	wrist_flex_r	wrist_dev_r	arm_flex_l	arm_add_l	arm_rot_l	elbow_flex_l	pro_sup_l	wrist_flex_l	wrist_dev_l
      1.67000000	     -3.74845451	     -1.13772198	    -12.86782588	      1.81829785	      0.89494618	      0.23059035	    -19.57146306	     -1.49979936	     -8.19707711	     10.53956815	      0.18395017	     -2.68292051	     10.88999476	      0.00000000	     27.17513532	     -7.67895150	    -30.83198815	      6.60905306	      0.11534974	     -5.00867723	     10.41344210	      0.00000000	     12.91951286	      0.07839313	      4.61849609	     44.70163849	    -15.62497704	     44.70163849	     75.03758848	     44.99873506	      0.00000000	      0.00000000	     44.70163849	    -15.62497704	     44.70163849	     75.03758848	     44.99873506	      0.00000000	      0.00000000
      1.67500000	     -3.48776305	     -0.91175391	    -13.11007760	      1.82633679	      0.89498115	      0.23062899	    -20.09505114	     -1.95878815	     -7.53558424	     10.67694968	      0.18634793	     -3.86608562	      9.83018834	      0.00000000	     26.57607910	     -7.34962531	    -30.42346029	      6.72688602	      0.11740631	     -5.84459153	      8.74970385	      0.00000000	     12.73424387	     -0.04735211	      5.36891262	     44.70252063	    -15.62192492	     44.70252063	     75.03723133	     44.99876830	      0.00000000	      0.00000000	     44.70252063	    -15.62192492	     44.70252063	     75.03723133	     44.99876830	      0.00000000	      0.00000000
      1.68000000	     -3.31864751	     -0.66715650	    -13.21995655	      1.83458317	      0.89477998	      0.23038003	    -20.39830342	     -2.45891602	     -7.43821141	     11.09513781	      0.19364669	     -4.92244210	      9.43511533	      0.00000000	     26.29368397	     -7.12811949	    -30.47940291	      7.38097502	      0.12882232	     -6.35538575	      8.00296379	      0.00000000	     12.70745636	     -0.35970871	      5.63479450	     44.70275027	    -15.62113138	     44.70275027	     75.03713873	     44.99877683	      0.00000000	      0.00000000	     44.70275027	    -15.62113138	     44.70275027	     75.03713873	     44.99877683	      0.00000000	      0.00000000
      1.68500000	     -3.14385762	     -0.42272372	    -13.31948858	      1.84281178	      0.89470660	      0.23006551	    -20.66450171	     -2.95921375	     -7.32518224	     11.55872198	      0.20173776	     -6.08874692	      8.98371059	      0.00000000	     25.99544597	     -6.89808001	    -30.53757928	      8.00433782	      0.13970205	     -6.96837478	      7.28814893	      0.00000000	     12.66909572	     -0.67049303	      5.88101002	     44.70291015	    -15.62057911	     44.70291015	     75.03707436	     44.99878274	      0.00000000	      0.00000000	     44.70291015	    -15.62057911	     44.70291015	     75.03707436	     44.99878274	      0.00000000	      0.00000000
      1.69000000	     -2.95409450	     -0.15790050	    -13.40359652	      1.85099592	      0.89475889	      0.22971471	    -20.91143353	     -3.46493669	     -7.14350605	     12.04851144	      0.21028619	     -7.33617369	      8.34183551	      0.00000000	     25.67266032	     -6.62559713	    -30.55242019	      8.58274000	      0.14979707	     -7.65352058	      6.54399493	      0.00000000	     12.59754723	     -0.98808556	      6.16101621	     44.70309519	    -15.61994019	     44.70309519	     75.03699996	     44.99878954	      0.00000000	      0.00000000	     44.70309519	    -15.61994019	     44.70309519	     75.03699996	     44.99878954	      0.00000000	      0.00000000
      1.69500000	     -2.71448805	     -0.01154545	    -13.56100238	      1.85901475	      0.89520728	      0.22963365	    -21.29296114	     -3.79343473	     -6.47962256	     12.29859656	      0.21465100	     -8.93500646	      7.00778095	      0.00000000	     25.14416646	     -6.41444571	    -30.21419983	      8.85336781	      0.15452042	     -8.61471431	      5.42789365	      0.00000000	     12.42515762	     -1.08746684	      6.78757875	     44.70408313	    -15.61653283	     44.70408313	     75.03660428	     44.99882535	      0.00000000	      0.00000000	     44.70408313	    -15.61653283	     44.70408313	     75.03660428	     44.99882535	      0.00000000	      0.00000000
      1.70000000	     -2.52538958	      0.23850006	    -13.56309258	      1.86724834	      0.89543395	      0.22913213	    -21.43531929	     -4.27671936	     -6.48070174	     12.94324500	      0.22590224	    -10.32704132	      6.49689341	      0.00000000	     24.86906685	     -6.16656570	    -30.27833908	      9.54798712	      0.16664381	     -9.25441597	      4.91768710	      0.00000000	     12.37062265	     -1.39928500	      6.99938605	     44.70425560	    -15.61593883	     44.70425560	     75.03653553	     44.99883150	      0.00000000	      0.00000000	     44.70425560	    -15.61593883	     44.70425560	     75.03653553	     44.99883150	      0.00000000	      0.00000000
